<?xml version="1.0" standalone="no"?><!DOCTYPE svg PUBLIC "-//W3C//DTD SVG 1.1//EN" "http://www.w3.org/Graphics/SVG/1.1/DTD/svg11.dtd"><svg t="1712477531410" class="icon" viewBox="0 0 1024 1024" version="1.1" xmlns="http://www.w3.org/2000/svg" p-id="12973" id="mx_n_1712477531411" xmlns:xlink="http://www.w3.org/1999/xlink" width="200" height="200"><path d="M0 512a512 512 0 1 0 1024 0A512 512 0 0 0 0 512z" fill="#6EB6A9" p-id="12974"></path><path d="M665.6 244.053333a117.987556 117.987556 0 0 0-116.906667 115.143111v128.568889c-11.662222 0-23.324444 1.706667-36.693333 1.706667a256.682667 256.682667 0 0 0-36.693333 1.649778v-131.982222c0-63.431111-53.475556-115.2-118.613334-113.550223-61.724444 0-111.957333 51.768889-113.493333 113.550223v307.2a115.768889 115.768889 0 0 0 118.499556 113.664c63.488-1.706667 113.607111-51.768889 113.607111-113.550223v-128.568889c11.662222 0 23.324444-1.706667 36.693333-1.706666 12.288 0.341333 24.519111-0.227556 36.693333-1.706667v130.275556a116.053333 116.053333 0 0 0 118.613334 113.550222c63.431111-1.706667 113.493333-51.768889 113.493333-113.550222v-305.493334A115.484444 115.484444 0 0 0 665.6 243.939556z m-305.607111 46.705778a67.697778 67.697778 0 0 1 68.551111 68.437333v135.224889a413.923556 413.923556 0 0 0-98.531556 28.444445 182.215111 182.215111 0 0 0-38.4 23.324444V359.196444c0.170667-37.717333 30.72-68.266667 68.380445-68.437333z m68.437333 375.694222a68.494222 68.494222 0 0 1-136.931555 0v-30.094222c0-26.737778 21.731556-53.418667 58.481777-68.437333a319.032889 319.032889 0 0 1 79.985778-23.381334l-1.536 121.912889z m237.112889 68.437334a67.697778 67.697778 0 0 1-68.437333-68.437334V531.228444a416.312889 416.312889 0 0 0 98.474666-28.444444 184.32 184.32 0 0 0 38.4-23.324444v186.993777c-0.170667 37.717333-30.72 68.266667-68.380444 68.437334h-0.056889z m10.012445-275.512889a317.383111 317.383111 0 0 1-79.985778 23.381333V359.196444a68.494222 68.494222 0 0 1 136.931555 0v30.094223c1.592889 28.330667-20.138667 53.361778-56.888889 70.087111z" fill="#FFFFFF" p-id="12975"></path></svg>